<svg width="240" height="240" viewBox="0 0 240 240" fill="none" xmlns="http://www.w3.org/2000/svg">
<path fill-rule="evenodd" clip-rule="evenodd" d="M199.444 176.813C199.444 182.846 169.764 187.737 133.153 187.737C96.5407 187.737 66.8617 182.846 66.8617 176.813C66.8617 170.781 96.5407 165.89 133.153 165.89C169.764 165.89 199.444 170.781 199.444 176.813Z" fill="#D38E44"/>
<path fill-rule="evenodd" clip-rule="evenodd" d="M113.04 175.084C126.798 174.735 144.245 181.771 155.49 173.987C158.03 172.23 156.664 171.007 156.49 171.19C145.838 182.521 131.357 173.082 110.909 172.06C110.77 172.053 113.027 174.921 113.04 175.084Z" fill="#3E0000"/>
<path fill-rule="evenodd" clip-rule="evenodd" d="M93.4447 101.466C85.2157 92.2217 72.2767 93.2257 65.9987 96.8207C57.2757 101.819 41.0027 120.128 51.2737 129.75C58.0457 136.095 59.4427 140.411 69.3087 146.328C74.6547 149.534 81.1837 157.131 88.5687 161.388C92.3497 163.568 98.2277 166.721 98.7207 171.009C99.5327 178.074 109.401 179.486 118.184 179.008C119.903 178.915 115.201 175.382 116.761 175.172C119.38 174.82 127.998 177.029 129.646 177.235C137.892 178.268 144.017 178.778 148.498 178.758C158.01 178.717 161.142 174.183 162.672 172.611C167.617 167.526 162.72 164.827 161.168 162.123C160.612 161.156 162.02 159.394 162.313 158.632C164.729 152.363 166.278 150.149 170.087 144.549C173.076 140.154 172.326 145.999 174.903 138.701C181.302 120.581 176.121 132.819 176.973 123.984C177.278 120.812 188.177 117.378 179.509 102.507C176.671 97.6357 171.738 85.1967 166.349 78.8767C160.776 72.3427 163.468 77.8617 158.476 76.3637C119.179 64.5807 140.519 80.7747 114.619 73.9837C102.567 70.8247 101.305 70.0197 98.9717 86.1487C97.8597 93.8367 97.7227 90.5267 93.4447 101.466Z" fill="#AA7B55"/>
<path fill-rule="evenodd" clip-rule="evenodd" d="M139.927 157.059C146.956 158.141 156.027 150.697 166.289 132.327C162.357 181.233 97.8641 179.566 85.3111 140.894C83.7461 136.07 86.6531 117.592 91.8731 106.963C106.412 77.3663 91.0781 105.439 87.7381 106.928C85.4531 107.947 82.1081 107.01 81.5051 108.379C72.5401 128.736 68.1421 139.955 75.0391 149.276C81.3911 157.86 92.2591 161.176 93.6061 162.147C93.9811 162.415 96.7431 174.112 102.263 176.385C106.125 177.975 111.031 179.488 114.553 178.651C116.142 178.273 116.283 175.694 117.953 175.427C121.879 174.797 127.38 175.853 127.812 175.881C130.849 176.089 143.449 180.255 151.536 178.576C161.351 176.538 166.699 168.455 168.033 167.091C169.796 165.288 156.473 162.016 158.351 159.923C167.379 149.863 175.683 136.576 171.781 129.317C171.66 129.092 182.647 122.283 182.791 113.811C182.94 105.055 179.122 130.391 155.58 125.112C148.227 123.463 148.625 140.247 144.664 140.075C118.233 138.915 139.082 153.48 139.927 157.059Z" fill="#8C5D40"/>
<path fill-rule="evenodd" clip-rule="evenodd" d="M145.086 115.369C145.142 117.165 130.912 121.949 127.319 124.724C123.866 127.393 121.606 126.32 121.399 132.831C121.367 133.859 124.82 143.837 125.615 145.476C129.078 152.618 132.384 156.88 141.166 156.27C143.681 156.097 146.415 154.119 148.421 152.723C151.153 150.821 159.383 135.579 162.46 131.338C168.271 123.325 160.23 124.595 153.525 117.762C152.542 116.761 146.51 115.369 145.086 115.369Z" fill="white"/>
<path fill-rule="evenodd" clip-rule="evenodd" d="M145.086 115.369C145.142 116.431 133.152 122.89 129.56 124.533C126.107 126.112 122.822 122.118 121.399 125.703C118.914 131.964 129.349 147.351 130.143 148.32C128.836 144.085 126.162 137.962 128.149 134.354C130.152 130.721 141.614 125.493 141.561 129.239C141.507 133.04 140.544 139.993 139.353 149.807C141.868 149.705 147.534 131.265 149.024 129.696C151.328 127.269 156.097 129.924 156.641 131.973C157.185 134.02 154.799 139.904 148.815 149.344C151.075 147.5 161.309 137.744 162.794 132.599C165.124 124.524 157.618 120.23 153.525 117.762C152.543 117.171 146.51 115.369 145.086 115.369Z" fill="#ECE1DA"/>
<path fill-rule="evenodd" clip-rule="evenodd" d="M100.889 71.9011C98.4584 72.0571 100.923 65.5471 103.486 63.2501C113.238 54.5081 113.655 56.9071 123.152 53.6031C127.071 52.2411 138.449 54.6291 142.064 56.4631C143.419 57.1501 146.148 64.4921 149.897 66.1931C154.607 68.3301 157.863 74.5031 149.878 75.7001C141.455 76.9631 128.334 78.3031 121.276 72.6671C116.508 68.8591 119.335 76.3471 112.859 73.5201C112.847 73.5161 100.91 71.8991 100.889 71.9011Z" fill="#FA9339"/>
<path fill-rule="evenodd" clip-rule="evenodd" d="M122.093 72.5448C120.786 72.6288 126.301 70.7549 127.677 69.5209C132.92 64.8209 133.573 67.6039 138.679 65.8269C140.785 65.0959 149.09 67.0728 151.033 68.0598C151.761 68.4278 151.849 69.5869 153.864 70.4999C156.396 71.6489 158.195 73.2758 153.902 73.9198C149.374 74.5998 141.037 77.6129 137.243 74.5829C134.68 72.5359 136.513 75.2059 132.717 75.0429C131.219 74.9789 108.138 71.9868 122.093 72.5448Z" fill="#8B4519"/>
<path fill-rule="evenodd" clip-rule="evenodd" d="M76.8378 97.3445C74.6748 94.8575 53.8598 127.101 51.9958 128.924C48.0108 132.82 53.8948 134.824 60.7458 140.51C72.7548 150.478 70.5178 149.521 79.1358 153.546C79.1788 153.427 79.1768 153.385 78.4188 152.638C77.9938 152.219 81.1078 143.752 80.3128 142.979C79.5178 142.205 78.0468 147.3 76.2048 150.398C74.5538 148.811 72.0018 146.381 72.1298 146.066C74.7958 139.543 82.0818 123.412 80.9798 122.726C79.5138 121.815 71.7088 140.22 69.0508 143.213C68.1058 144.279 65.5788 142.835 64.7778 141.958C64.2818 141.416 63.5078 140.617 64.0418 139.457C68.2778 130.269 85.2608 100.868 83.8988 99.9225C82.6458 99.0505 67.6868 126.608 61.4638 134.751C59.3028 137.578 56.5558 132.864 55.2348 131.954C57.1108 129.293 77.4078 98.0005 76.8378 97.3445Z" fill="#3E0000"/>
<path fill-rule="evenodd" clip-rule="evenodd" d="M139.831 108.273C140.429 108.998 140.98 109.562 141.529 110.117C140.949 108.569 140.914 106.796 141.443 105.228C139.613 105.878 138.697 106.898 139.831 108.273Z" fill="#3E0000"/>
<path fill-rule="evenodd" clip-rule="evenodd" d="M164.362 94.4179C164.585 94.4179 164.798 94.4569 164.997 94.5269C164.318 93.8829 163.401 93.4849 162.391 93.4849C160.302 93.4849 158.611 95.1789 158.611 97.2659C158.611 99.3549 160.302 101.047 162.391 101.047C164.479 101.047 166.172 99.3549 166.172 97.2659C166.172 97.1449 166.165 97.0249 166.155 96.9079C165.904 97.6569 165.196 98.1979 164.362 98.1979C163.318 98.1979 162.471 97.3529 162.471 96.3079C162.471 95.2639 163.318 94.4179 164.362 94.4179Z" fill="#3E0000"/>
<path fill-rule="evenodd" clip-rule="evenodd" d="M114.899 172.622C114.394 172.246 113.405 171.713 113.222 171.856C112.956 172.066 114.678 174.442 113.878 176.225C113.076 178.007 102.733 174.959 102.126 173.682C101.477 172.318 103.414 167.929 103.018 166.56C102.621 165.191 99.4888 163.588 97.5848 162.556C82.0318 154.127 51.1828 129.323 52.6938 120.395C54.1168 111.988 67.8128 96.4759 70.9698 95.7329C74.1268 94.9899 86.3928 97.0229 86.6818 96.1209C87.0018 95.1229 70.2908 88.5669 66.8098 89.5839C63.5198 90.5429 42.1278 112.435 40.7148 120.504C37.3828 139.546 87.6118 164.04 94.2438 167.928C96.2058 169.076 92.7458 173.617 94.2398 176.122C96.2008 179.404 119.821 181.774 120.287 179.685C120.667 177.984 117.123 174.273 114.899 172.622Z" fill="#3E0000"/>
<path fill-rule="evenodd" clip-rule="evenodd" d="M143.499 154.365C142.582 154.832 140.959 155.01 139.323 154.978C143.581 144.308 148.03 132.316 150.171 117.882C153.309 121.645 158.081 126.427 161.78 128.493C159.628 135.985 147.707 152.222 143.499 154.365ZM137.417 154.846C136.176 154.698 135.101 154.434 134.552 154.097C131.472 152.202 125.012 139.634 123.437 131.13C129.003 130.173 139.713 123.522 144.827 118.338C143.728 130.073 140.523 142.9 137.417 154.846ZM136.644 71.6961C131.854 71.7881 127.049 72.0841 123.345 72.3201C131.338 66.0041 150.433 64.9371 152.429 71.8691C148.528 71.8521 142.812 71.5791 136.644 71.6961ZM115.581 71.5791C113.639 69.3831 110.123 64.4391 107.97 64.3901C107.109 64.3701 105.102 65.6051 102.782 67.3521C103.835 59.8211 114.301 55.5841 124.063 54.7551C126.437 56.6241 128.448 58.7561 131.113 64.6001C126.575 64.8151 122.931 65.2421 121.693 65.9131C119.491 67.1081 117.237 69.3181 115.581 71.5791ZM139.67 57.6781C140.906 58.7591 143.178 61.7491 144.682 64.5211C141.87 64.4361 138.898 64.4131 136.048 64.4531C133.879 59.8661 131.394 56.9421 128.728 54.6211C133.408 54.7621 137.489 55.7761 139.67 57.6781ZM168.707 78.5751C168.67 76.2591 172.504 73.9741 172.184 71.0551C171.969 69.0831 163.677 65.2541 161.803 66.0311C160.335 66.6401 159.455 69.2591 158.209 70.6871C158.702 68.7711 158.89 66.8761 158.297 66.1501C157.798 65.5391 154.549 65.0701 150.167 64.7781C148.562 61.1341 144.96 57.1771 142.543 54.9911C140.044 52.7301 133.655 52.0921 126.466 52.8021C125.732 52.2511 125.443 52.1461 123.651 52.3791C121.983 52.5941 121.86 53.0071 122.233 53.3621C111.706 55.1021 100.766 59.4771 98.3629 65.6971C97.9269 66.8261 97.6229 68.8941 97.7379 71.5111C94.4919 74.4051 91.7559 77.2801 91.7249 78.1781C91.6559 80.1811 95.2069 83.0341 95.4689 84.5281C95.7299 86.0221 89.0779 96.2091 85.0819 110.259C80.1689 127.528 83.0979 151.374 98.4789 151.247C106.812 151.177 104.754 138.489 99.0929 138.738C97.4159 138.812 98.3759 149.104 94.5659 147.412C87.8109 144.41 86.8849 126.523 91.7749 114.116C101.631 89.1121 105.434 87.7721 105.131 85.9841C104.828 84.1961 100.963 81.0961 100.869 79.8861C100.76 78.4831 106.386 73.1011 108.08 73.6921C109.565 74.2101 111.999 79.9021 114.092 80.2731C115.945 80.6021 151.285 74.3861 159.789 78.2301C168.293 82.0741 180.857 110.314 179.91 113.244C178.962 116.173 171.058 121.233 163.92 120.896C158.938 120.661 152.423 116.128 149.638 113.703C149.706 113.663 149.769 113.604 149.836 113.559C149.102 113.857 148.274 114.042 147.324 114.042C146.432 114.042 145.656 113.869 144.954 113.605C140.922 116.978 133.792 121.537 127.449 121.954C119.153 122.496 110.959 116.941 109.615 114.532C108.094 111.805 113.727 101.392 112.934 100.742C111.336 99.4311 96.8489 114.906 98.4519 120.332C99.6679 124.446 108.727 128.61 116.055 130.373C117.911 137.152 126.12 153.626 128.899 155.436C131.863 157.367 140.56 158.088 144.218 156.583C148.394 154.865 161.934 141.162 166.042 129.522C167.353 129.434 168.915 129.116 170.586 128.629C169.074 151.589 147.493 167.515 148.314 169.035C149.151 170.584 161.502 166.851 162.986 168.34C164.358 169.716 158.368 176.306 158.733 176.461C159.098 176.615 173.562 167.022 172.472 163.137C171.834 160.865 162.898 162.036 162.378 161.123C161.883 160.251 177.798 149.096 181.497 123.742C184.098 122.121 186.113 120.392 186.794 118.884C188.888 114.25 168.715 79.1771 168.707 78.5751Z" fill="#3E0000"/>
<path fill-rule="evenodd" clip-rule="evenodd" d="M130.575 94.4159C130.799 94.4159 131.013 94.4549 131.212 94.5269C130.533 93.8809 129.616 93.4839 128.606 93.4839C126.518 93.4839 124.825 95.1779 124.825 97.2659C124.825 99.3529 126.518 101.046 128.606 101.046C130.694 101.046 132.386 99.3529 132.386 97.2659C132.386 97.1449 132.38 97.0239 132.369 96.9059C132.162 97.5269 131.641 98.0049 130.993 98.1499C130.858 98.1809 130.719 98.1959 130.575 98.1959C129.532 98.1959 128.686 97.3519 128.686 96.3069C128.686 95.7409 128.933 95.2329 129.326 94.8879C129.66 94.5939 130.097 94.4159 130.575 94.4159Z" fill="#3E0000"/>
<path fill-rule="evenodd" clip-rule="evenodd" d="M162.443 100.987C164.5 100.987 166.177 99.3091 166.177 97.2531C166.177 95.1961 164.5 93.5171 162.443 93.5171C160.386 93.5171 158.708 95.1961 158.708 97.2531C158.708 99.3091 160.386 100.987 162.443 100.987Z" fill="#3E0000"/>
<path fill-rule="evenodd" clip-rule="evenodd" d="M162.444 99.4353C163.647 99.4353 164.626 98.4553 164.626 97.2523C164.626 96.0503 163.647 95.0693 162.444 95.0693C161.241 95.0693 160.26 96.0503 160.26 97.2523C160.26 98.4553 161.241 99.4353 162.444 99.4353Z" fill="black"/>
<path fill-rule="evenodd" clip-rule="evenodd" d="M164.367 97.1043C164.974 97.1043 165.468 96.6103 165.468 96.0033C165.468 95.3973 164.974 94.9023 164.367 94.9023C163.761 94.9023 163.265 95.3973 163.265 96.0033C163.265 96.6103 163.761 97.1043 164.367 97.1043Z" fill="white"/>
<path fill-rule="evenodd" clip-rule="evenodd" d="M128.679 101.001C130.736 101.001 132.413 99.3228 132.413 97.2668C132.413 95.2098 130.736 93.5308 128.679 93.5308C126.622 93.5308 124.944 95.2098 124.944 97.2668C124.944 99.3228 126.622 101.001 128.679 101.001Z" fill="#3E0000"/>
<path fill-rule="evenodd" clip-rule="evenodd" d="M128.68 99.449C129.883 99.449 130.862 98.47 130.862 97.266C130.862 96.064 129.883 95.083 128.68 95.083C127.477 95.083 126.496 96.064 126.496 97.266C126.496 98.47 127.477 99.449 128.68 99.449Z" fill="black"/>
<path fill-rule="evenodd" clip-rule="evenodd" d="M130.603 97.118C131.209 97.118 131.704 96.624 131.704 96.017C131.704 95.411 131.209 94.916 130.603 94.916C129.997 94.916 129.501 95.411 129.501 96.017C129.501 96.624 129.997 97.118 130.603 97.118Z" fill="white"/>
<path fill-rule="evenodd" clip-rule="evenodd" d="M144.988 113.6C144.698 113.411 146.02 111.671 146.304 110.406C146.681 108.728 145.27 108.4 144.272 108.609C142.412 108.999 143.71 111.096 144.121 111.884C144.459 112.532 144.225 112.933 143.159 111.829C142.624 111.275 142.165 110.759 141.685 110.274C141.09 109.674 140.493 109.071 139.845 108.285C135.871 103.466 157.028 102.999 154.737 107.574C153.898 109.247 152.847 110.452 151.659 111.826C149.886 113.876 151.874 110.303 151.888 109.494C151.906 108.51 151.329 108.641 150.937 109.015C149.976 109.928 151.916 113.98 147.702 114.272C146.712 114.341 145.688 114.134 144.988 113.6Z" fill="black"/>
<path fill-rule="evenodd" clip-rule="evenodd" d="M73.2626 95.5672C80.9506 96.0782 86.2576 97.7262 93.8846 100.353C91.4256 97.5212 87.6816 96.0202 80.8146 93.0902C77.8866 91.8402 74.9156 93.8482 73.2626 95.5672Z" fill="#3E0000"/>
<path fill-rule="evenodd" clip-rule="evenodd" d="M84.9467 143.043C83.3677 145.935 52.6057 120.606 50.3947 119.225C45.6687 116.274 52.0567 110.386 57.5277 103.366C67.1207 91.0596 61.8057 98.4156 69.3617 92.6396C69.4167 92.7256 80.6407 102.613 80.3177 103.005C79.8657 103.553 67.8877 94.9086 67.1767 95.6856C65.9377 97.0356 64.7167 98.4116 64.9677 98.6776C69.5217 103.504 82.6597 112.501 81.5367 113.733C79.9957 115.425 67.1827 104.437 63.4487 101.81C60.2287 99.5436 58.8027 105.338 59.3707 106.09C65.4747 114.157 87.5077 129.77 86.3827 130.984C85.3457 132.103 66.0937 117.782 57.7637 111.328C54.9517 109.15 54.0067 114.399 52.9087 115.571C55.3127 117.769 85.3627 142.281 84.9467 143.043Z" fill="#3E0000"/>
</svg>
