<svg width="13" height="13" viewBox="0 0 13 13" fill="none" xmlns="http://www.w3.org/2000/svg">
<path d="M7.96777 9.91406C8.01701 10.0792 8.04488 10.2544 8.04492 10.4355C8.04483 11.4425 7.2286 12.2585 6.22168 12.2588C5.21459 12.2587 4.39755 11.4426 4.39746 10.4355C4.3975 10.2544 4.42538 10.0792 4.47461 9.91406H7.96777ZM6.22168 0C8.50865 0.000279634 11.2057 1.96261 11.6318 7.21289H11.6924L11.7686 7.2168C12.1467 7.25512 12.4422 7.57467 12.4424 7.96289C12.4424 8.35127 12.1468 8.67065 11.7686 8.70898L11.6924 8.71289H0.75C0.335866 8.7128 0 8.37705 0 7.96289C0.000190822 7.5489 0.335984 7.21298 0.75 7.21289H0.80957C1.2336 1.92985 3.93338 0 6.22168 0ZM6.22168 2.5C5.77377 2.5 5.1296 2.69391 4.5332 3.46875C4.12576 3.99821 3.70211 4.86065 3.45801 6.19434H8.98242C8.73805 4.87494 8.31591 4.01359 7.90723 3.48047C7.30368 2.69333 6.6565 2.50014 6.22168 2.5Z" fill="currentColor"/>
</svg>
