<svg width="13" height="12" viewBox="0 0 13 12" fill="none" xmlns="http://www.w3.org/2000/svg">
<path d="M7.96777 9.65561C8.01701 9.82079 8.04488 9.99592 8.04492 10.1771C8.04483 11.184 7.2286 12.0001 6.22168 12.0003C5.21459 12.0003 4.39755 11.1842 4.39746 10.1771C4.3975 9.99593 4.42538 9.82079 4.47461 9.65561H7.96777ZM6.2207 0.00229073C8.50492 0.00229073 11.1996 1.96096 11.6309 7.19956H11.6924L11.7686 7.20346C12.1468 7.2418 12.4424 7.56118 12.4424 7.94956C12.4422 8.33776 12.1467 8.65733 11.7686 8.69565L11.6924 8.69956V8.70151H0.75V8.69956L0.673828 8.69565C0.295586 8.65743 0.000198532 8.33783 0 7.94956C0 7.5354 0.335866 7.19965 0.75 7.19956H0.810547C1.23961 1.92897 3.93533 0.00250375 6.2207 0.00229073Z" fill="currentColor"/>
</svg>
