<svg width="240" height="240" viewBox="0 0 240 240" fill="none" xmlns="http://www.w3.org/2000/svg">
<path d="M131.083 153.64L75.6669 153.642C69.5746 153.638 64.5849 148.475 64.5837 142.422C64.5886 136.372 69.5787 131.212 75.6692 131.21H97.9091C103.972 131.167 108.917 126.018 108.919 119.995V52.7034C108.923 46.6535 113.911 41.4943 120 41.4905C126.09 41.493 131.079 46.6526 131.083 52.7034V84.4187C131.087 90.3849 136.331 95.6279 142.164 95.6316C148.256 95.629 153.245 90.4679 153.248 84.4163V52.7034C153.251 46.6526 158.241 41.493 164.331 41.4905C170.421 41.493 175.411 46.6522 175.416 52.7034V187.288C175.413 193.34 170.422 198.5 164.331 198.503C158.24 198.5 153.25 193.339 153.248 187.288V176.073C153.248 163.69 143.315 153.64 131.083 153.64Z" fill="currentColor"/>
<path d="M120 194.618C128.736 194.618 135.819 187.451 135.819 178.611C135.819 169.77 128.736 162.604 120 162.604C111.263 162.604 104.181 169.77 104.181 178.611C104.181 187.451 111.263 194.618 120 194.618Z" fill="currentColor"/>
</svg>
