<svg width="240" height="240" viewBox="0 0 240 240" fill="none" xmlns="http://www.w3.org/2000/svg">
<path d="M93.4684 48L95.8987 49.519V91.7468C104.473 86.0759 113.958 83.2405 124.354 83.2405C139.342 83.2405 151.764 88.4725 161.62 98.9367C171.342 109.401 176.203 122.295 176.203 137.62C176.203 153.013 171.308 165.907 161.519 176.304C151.662 186.768 139.274 192 124.354 192C111.325 192 100.186 187.342 90.9367 178.025V189.468H63.7975V51.3418L93.4684 48ZM119.19 110.684C112.034 110.684 106.059 113.114 101.266 117.975C96.4726 122.97 94.076 129.519 94.076 137.62C94.076 145.722 96.4726 152.236 101.266 157.164C105.992 162.093 111.966 164.557 119.19 164.557C126.819 164.557 132.996 161.992 137.722 156.861C142.38 151.797 144.709 145.384 144.709 137.62C144.709 129.856 142.346 123.409 137.62 118.278C132.894 113.215 126.751 110.684 119.19 110.684Z" fill="currentColor"/>
</svg>
