<svg width="240" height="240" viewBox="0 0 240 240" fill="none" xmlns="http://www.w3.org/2000/svg">
<path d="M42.5525 101.979L120 58.0459L197.448 101.979L120 145.912L42.5525 101.979ZM70.3542 103.025L120 131.268L169.646 103.025L120 74.7824L70.3542 103.025Z" fill="black"/>
<path fill-rule="evenodd" clip-rule="evenodd" d="M42.5525 101.979L120 58.0459L197.448 101.979L120 145.912L42.5525 101.979ZM70.3542 103.025L120 131.268L169.646 103.025L120 74.7824L70.3542 103.025Z" fill="white"/>
<g opacity="0.75">
<path d="M42.5525 138.811L56.4249 131.084L120 166.459L183.987 131.313L197.448 138.811L120 181.954L42.5525 138.811Z" fill="black"/>
<path fill-rule="evenodd" clip-rule="evenodd" d="M42.5525 138.811L56.4249 131.084L120 166.459L183.987 131.313L197.448 138.811L120 181.954L42.5525 138.811Z" fill="white"/>
</g>
</svg>
