<svg width="240" height="240" viewBox="0 0 240 240" fill="none" xmlns="http://www.w3.org/2000/svg">
<path d="M120 25.7143C172.014 25.7143 214.286 67.9857 214.286 120C214.286 172.014 172.014 214.286 120 214.286C67.9857 214.286 25.7143 172.014 25.7143 120C25.7143 67.9857 67.9857 25.7143 120 25.7143ZM120 10C59.2643 10 10 59.2643 10 120C10 180.736 59.2643 230 120 230C180.736 230 230 180.736 230 120C230 59.2643 180.736 10 120 10Z" fill="currentColor"/>
<path d="M150.8 147.421C153.707 143.964 155.907 139.879 157.4 135.243C158.893 130.529 160.857 114.5 157.321 103.971C155.75 99.3357 153.55 95.25 150.643 91.8714C147.736 88.4929 144.2 85.9 139.957 84.0143C135.715 82.1286 130.686 80.7143 125.107 80.7143H96.4287V159.286H125.107C130.765 159.286 135.793 157.4 140.115 155.436C144.357 153.55 147.971 150.8 150.8 147.421ZM145.3 69.2429C151.665 71.9143 157.165 75.7643 161.643 80.6357C166.043 85.5071 169.421 91.3214 171.7 97.9214C173.9 104.521 175 112.221 175 120C175 127.621 173.979 134.379 171.779 140.979C169.579 147.579 166.279 153.471 161.879 158.343C157.479 163.293 152.057 167.221 145.536 170.05C139.171 172.8 131.707 175 123.379 175H88.5716C84.2501 175 80.7144 171.464 80.7144 167.143V72.8571C80.7144 68.5357 84.2501 65 88.5716 65H123.379C131.55 65 138.936 66.5714 145.3 69.2429Z" fill="currentColor"/>
</svg>
