<svg width="240" height="240" viewBox="0 0 240 240" fill="none" xmlns="http://www.w3.org/2000/svg">
<path d="M213.635 117.465C211.847 133.314 202.827 148.763 196.463 150.009C190.099 151.255 155.097 87.1589 158.421 87.4359C161.745 87.7128 165.719 84.3667 165.719 84.3667C165.719 84.3667 173.515 75.2246 188.431 74.6727C203.347 74.1209 215.424 101.616 213.635 117.465Z" fill="black" fill-opacity="0.1"/>
<path d="M27.9314 117.465C29.72 133.314 38.7396 148.763 45.1037 150.009C51.4677 151.255 86.2339 86.721 82.9102 86.9979C79.5865 87.2749 75.8475 84.3667 75.8475 84.3667C75.8475 84.3667 68.0521 75.2246 53.1358 74.6727C38.2195 74.1209 26.1429 101.616 27.9314 117.465Z" fill="black" fill-opacity="0.1"/>
<path d="M198.193 135.825C198.193 165.411 172.104 189.395 120.94 189.395C68.256 189.395 43.687 165.411 43.687 135.825C43.687 94.9189 78.2743 82.2544 120.94 82.2544C163.605 82.2544 198.193 98.2116 198.193 135.825Z" fill="black" fill-opacity="0.1"/>
<path d="M213.636 109.405C211.847 125.254 202.827 140.703 196.463 141.949C190.099 143.195 155.098 79.0988 158.421 79.3758C161.745 79.6528 165.72 76.3066 165.72 76.3066C165.72 76.3066 173.515 67.1645 188.431 66.6127C203.347 66.0608 215.424 93.5556 213.636 109.405Z" fill="#EDF2F5"/>
<path d="M27.9314 109.405C29.72 125.254 38.7396 140.703 45.1037 141.949C51.4677 143.195 86.2339 78.6609 82.9102 78.9379C79.5865 79.2148 75.8475 76.3066 75.8475 76.3066C75.8475 76.3066 68.0521 67.1645 53.1358 66.6127C38.2195 66.0608 26.1429 93.5556 27.9314 109.405Z" fill="#EDF2F5"/>
<path d="M198.193 127.765C198.193 157.351 172.104 181.335 120.94 181.335C68.256 181.335 43.687 157.351 43.687 127.765C43.687 86.8588 78.2743 74.1943 120.94 74.1943C163.605 74.1943 198.193 90.1515 198.193 127.765Z" fill="white"/>
<path d="M102.471 155.304C102.471 155.304 113.024 159.522 120.573 148.666M138.792 154.899C138.792 154.899 129.205 160.359 120.518 148.666" stroke="black" stroke-width="5" stroke-linecap="round"/>
<path d="M132.91 135.002C132.91 135.298 130.769 141.408 120.631 141.408C110.494 141.408 108.353 135.328 108.353 135.002C108.353 134.676 108.353 131.799 120.631 131.799C132.91 131.799 132.91 134.706 132.91 135.002Z" fill="black"/>
<path d="M170.087 126.077C170.087 134.111 165.542 137.814 159.473 137.814C153.404 137.814 148.609 134.111 148.609 126.077C148.609 118.042 151.282 109.344 157.351 109.344C163.42 109.344 170.087 118.042 170.087 126.077Z" fill="black"/>
<path d="M71.1755 126.077C71.1755 134.111 75.7206 137.814 81.7895 137.814C87.8585 137.814 92.6536 134.111 92.6536 126.077C92.6536 118.042 89.9813 109.344 83.9124 109.344C77.8434 109.344 71.1755 118.042 71.1755 126.077Z" fill="black"/>
<path d="M185.839 145.689C196.978 146.894 203.111 148.433 213.811 153.148" stroke="black" stroke-width="4" stroke-linecap="round"/>
<path d="M188.375 137.038C199.787 136.441 214.481 137.709 218.732 139.574" stroke="black" stroke-width="4" stroke-linecap="round"/>
<path d="M185.988 129.057C191.955 125.849 203.889 124.208 220 125.402" stroke="black" stroke-width="4" stroke-linecap="round"/>
<path d="M54.1609 145.646C43.0215 146.85 36.889 148.39 26.1884 153.105" stroke="black" stroke-width="4" stroke-linecap="round"/>
<path d="M51.6248 136.994C40.2129 136.397 25.5191 137.665 21.2677 139.53" stroke="black" stroke-width="4" stroke-linecap="round"/>
<path d="M54.0117 129.014C48.0448 125.806 36.1108 124.165 19.9999 125.358" stroke="black" stroke-width="4" stroke-linecap="round"/>
</svg>
