<svg width="14" height="15" viewBox="0 0 14 15" fill="none" xmlns="http://www.w3.org/2000/svg">
<path d="M12.3001 13.7623C12.6906 14.1528 13.3237 14.1529 13.7143 13.7624C14.1049 13.3719 14.1049 12.7388 13.7144 12.3482L13.0073 13.0552L12.3001 13.7623ZM11.596 6.35067H10.596C10.596 8.72315 8.67315 10.6461 6.30163 10.6461V11.6461V12.6461C9.7781 12.6461 12.596 9.82734 12.596 6.35067H11.596ZM6.30163 11.6461V10.6461C3.9301 10.6461 2.00726 8.72315 2.00726 6.35067H1.00726H0.00726318C0.00726318 9.82734 2.82516 12.6461 6.30163 12.6461V11.6461ZM1.00726 6.35067H2.00726C2.00726 3.97818 3.9301 2.05524 6.30163 2.05524V1.05524V0.0552406C2.82516 0.0552406 0.00726318 2.87399 0.00726318 6.35067H1.00726ZM6.30163 1.05524V2.05524C8.67315 2.05524 10.596 3.97818 10.596 6.35067H11.596H12.596C12.596 2.87399 9.7781 0.0552406 6.30163 0.0552406V1.05524ZM9.95228 9.99965L9.24511 10.7067L12.3001 13.7623L13.0073 13.0552L13.7144 12.3482L10.6595 9.29261L9.95228 9.99965Z" fill="currentColor"/>
</svg>
