<svg width="240" height="240" viewBox="0 0 240 240" fill="none" xmlns="http://www.w3.org/2000/svg">
<g clip-path="url(#clip0_293_485)">
<path fill-rule="evenodd" clip-rule="evenodd" d="M120 157.5C122.571 157.5 125.082 157.241 127.507 156.748C126.681 154.532 126.229 152.134 126.229 149.63C126.229 138.379 135.349 129.259 146.599 129.259C149.882 129.259 152.984 130.036 155.731 131.416C156.88 127.816 157.5 123.98 157.5 120C157.5 99.2893 140.711 82.5 120 82.5C99.2893 82.5 82.5 99.2893 82.5 120C82.5 140.711 99.2893 157.5 120 157.5ZM165.221 141.36C168.286 134.883 170 127.641 170 120C170 92.3858 147.614 70 120 70C92.3858 70 70 92.3858 70 120C70 147.614 92.3858 170 120 170C125.737 170 131.248 169.034 136.38 167.255C139.384 169.001 142.875 170 146.599 170C157.85 170 166.97 160.88 166.97 149.63C166.97 146.685 166.345 143.887 165.221 141.36ZM156.032 149.688C156.032 154.865 151.835 159.062 146.657 159.062C141.48 159.062 137.282 154.865 137.282 149.688C137.282 144.51 141.48 140.312 146.657 140.312C151.835 140.312 156.032 144.51 156.032 149.688Z" fill="currentColor"/>
</g>
<defs>
<clipPath id="clip0_293_485">
<rect width="100" height="100" fill="white" transform="translate(70 70)"/>
</clipPath>
</defs>
</svg>
