<svg width="14" height="14" viewBox="0 0 14 14" fill="none" xmlns="http://www.w3.org/2000/svg">
<path d="M1.4632 13.0552H0.713203V13.8052H1.4632V13.0552ZM1.4632 10.2832L0.905733 9.78151L0.713203 9.99544V10.2832H1.4632ZM9.7684 1.05524L10.2987 0.524911C10.1532 0.37942 9.95437 0.300091 9.74868 0.3055C9.543 0.310909 9.34857 0.400581 9.21093 0.553517L9.7684 1.05524ZM12.5368 3.82364L13.0943 4.32538C13.3611 4.02888 13.3492 3.57538 13.0671 3.29331L12.5368 3.82364ZM4.228 13.0552V13.8052H4.56201L4.78546 13.557L4.228 13.0552ZM1.4632 13.0552H2.2132V10.2832H1.4632H0.713203V13.0552H1.4632ZM1.4632 10.2832L2.02067 10.785L10.3259 1.55696L9.7684 1.05524L9.21093 0.553517L0.905733 9.78151L1.4632 10.2832ZM9.7684 1.05524L9.23807 1.58557L12.0065 4.35397L12.5368 3.82364L13.0671 3.29331L10.2987 0.524911L9.7684 1.05524ZM12.5368 3.82364L11.9793 3.3219L3.67054 12.5535L4.228 13.0552L4.78546 13.557L13.0943 4.32538L12.5368 3.82364ZM4.228 13.0552V12.3052H1.4632V13.0552V13.8052H4.228V13.0552Z" fill="currentColor"/>
<path d="M10.9029 5.77922L10.9568 6.04024L10.965 6.18939L10.9733 6.29712L10.9526 6.4007L10.8988 6.62857L10.2814 6.50013L9.70966 7.0719L9.34505 6.70729L9.37406 6.56228L9.04674 6.51671C8.6668 6.45669 8.29607 6.28062 8.04409 5.92837L7.71263 5.46433C7.58872 5.29102 7.43267 5.04845 7.24445 4.74756L6.96271 4.30009L7.22373 4.13851L8.06066 3.30158L8.19324 3.43416L8.23882 3.5046L8.51641 3.94792C8.69975 4.24102 8.83785 4.4544 8.93488 4.59012L9.24562 5.02515C9.25367 5.02744 9.26631 5.035 9.28291 5.03758L9.97068 5.14531C10.1215 5.16888 10.3169 5.20948 10.4927 5.31103C10.6365 5.39446 10.8136 5.54682 10.9029 5.77922Z" fill="currentColor"/>
</svg>
