<svg width="14" height="11" viewBox="0 0 14 11" fill="none" xmlns="http://www.w3.org/2000/svg">
<path d="M1.00908 1.55433C0.456794 1.55433 0.00907898 2.00204 0.00907898 2.55433C0.00907898 3.10661 0.456794 3.55433 1.00908 3.55433V2.55433V1.55433ZM13.0091 3.55433C13.5614 3.55433 14.0091 3.10661 14.0091 2.55433C14.0091 2.00204 13.5614 1.55433 13.0091 1.55433V2.55433V3.55433ZM12.1257 2.55433V3.55433H13.0091V2.55433V1.55433H12.1257V2.55433ZM1.00908 2.55433V3.55433H8.48386V2.55433V1.55433H1.00908V2.55433Z" fill="currentColor"/>
<path d="M1.00908 6.78616C0.456794 6.78616 0.00907898 7.23387 0.00907898 7.78616C0.00907898 8.33844 0.456794 8.78616 1.00908 8.78616V7.78616V6.78616ZM13.0091 8.78616C13.5614 8.78616 14.0091 8.33844 14.0091 7.78616C14.0091 7.23387 13.5614 6.78616 13.0091 6.78616V7.78616V8.78616ZM1.00908 7.78616V8.78616H4.51766V7.78616V6.78616H1.00908V7.78616ZM7.96781 7.78616V8.78616H13.0091V7.78616V6.78616H7.96781V7.78616Z" fill="currentColor"/>
<circle cx="10.321" cy="2.55524" r="2" stroke="currentColor"/>
<circle cx="6.32097" cy="7.78615" r="2" stroke="currentColor"/>
</svg>
