<svg width="240" height="240" viewBox="0 0 240 240" fill="none" xmlns="http://www.w3.org/2000/svg">
<path d="M17.0574 119.997C17.0574 160.744 40.7375 195.958 75.0755 212.645L25.97 78.1018C20.2581 90.9046 17.0574 105.073 17.0574 119.997Z" fill="currentColor"/>
<path d="M189.496 114.802C189.496 102.08 184.926 93.269 181.006 86.4112C175.788 77.9315 170.897 70.7505 170.897 62.2708C170.897 52.8077 178.074 43.9989 188.183 43.9989C188.64 43.9989 189.073 44.0557 189.517 44.0812C171.202 27.302 146.801 17.0574 120.001 17.0574C84.037 17.0574 52.3963 35.5094 33.9893 63.4578C36.4045 63.5303 38.6806 63.5812 40.614 63.5812C51.3816 63.5812 68.0492 62.2747 68.0492 62.2747C73.5985 61.9476 74.2527 70.0982 68.7093 70.7544C68.7093 70.7544 63.1325 71.4106 56.927 71.7358L94.4148 183.241L116.943 115.676L100.904 71.7318C95.3609 71.4067 90.1093 70.7505 90.1093 70.7505C84.562 70.4253 85.2123 61.9436 90.7597 62.2708C90.7597 62.2708 107.76 63.5773 117.876 63.5773C128.641 63.5773 145.311 62.2708 145.311 62.2708C150.864 61.9436 151.516 70.0943 145.971 70.7505C145.971 70.7505 140.382 71.4067 134.189 71.7318L171.39 182.393L181.659 148.081C186.109 133.842 189.496 123.615 189.496 114.802Z" fill="currentColor"/>
<path d="M121.807 129.002L90.9204 218.753C100.143 221.464 109.895 222.947 120.001 222.947C131.989 222.947 143.485 220.874 154.186 217.111C153.91 216.67 153.659 216.202 153.454 215.693L121.807 129.002Z" fill="currentColor"/>
<path d="M210.33 70.6074C210.773 73.8865 211.023 77.4065 211.023 81.1929C211.023 91.6392 209.072 103.382 203.196 118.066L171.751 208.98C202.356 191.133 222.941 157.976 222.941 119.999C222.943 102.101 218.371 85.2711 210.33 70.6074Z" fill="currentColor"/>
<path d="M120.001 0C53.8341 0 0 53.8302 0 119.997C0 186.172 53.8341 240 120.001 240C186.166 240 240.008 186.172 240.008 119.997C240.006 53.8302 186.166 0 120.001 0ZM120.001 234.5C56.8683 234.5 5.50231 183.134 5.50231 119.997C5.50231 56.8644 56.8664 5.50231 120.001 5.50231C183.132 5.50231 234.494 56.8644 234.494 119.997C234.494 183.134 183.132 234.5 120.001 234.5Z" fill="currentColor"/>
</svg>
